<?xml version="1.0" encoding="utf-8"?>
<svg version="1.2" xmlns="http://www.w3.org/2000/svg" viewBox="34.722 102.061 1566.348 455.669" width="1640" height="664">
  <title>New Project</title>
  <defs>
    <linearGradient id="g1" x2="1" gradientUnits="userSpaceOnUse" gradientTransform="matrix(-1.133,-474.676,405.313,-0.967,111.049,559.688)">
      <stop offset="0" stop-color="#ff1d13"/>
      <stop offset="1" stop-color="#ff8091"/>
    </linearGradient>
  </defs>
  <style>
		.s0 { fill: #000000 } 
		.s1 { fill: url(#g1) } 
		.s2 { fill: #ff1d13 } 
	</style>
  <path id="HOGAR SAN CAYETANO" class="s0" aria-label="HOGAR&#10;SAN CAYETANO" d="m591.4 324h19.4v-41.6h36.7v41.6h19.3v-93.7h-19.3v36.1h-36.7v-36.1h-19.4zm91.2-46.9c0 40.2 21.5 49 45.4 49 22.7 0 45.1-8 45.1-49 0-41.7-23.2-48.9-45.5-48.9-21.2 0-45 6.4-45 48.9zm19.6 0.5c0-26 7.9-32.9 25.2-32.9 18.7 0 26.1 7.9 26.1 31.8 0 30.5-11.8 33.1-24.9 33.1-17.7 0-26.4-4.8-26.4-32zm171.5-3.9h-41.1v16h21.7c0 13.9-5.3 19.9-24.4 19.9-16.7 0-26.7-5.3-26.7-32.4 0-25.7 9.2-32.5 27.1-32.5 16.3 0 21.4 5.6 22.6 14.7h19.3c-1.8-21.9-17.2-31.2-42.4-31.2-21 0-46.2 6.4-46.2 48.9 0 40.2 22.9 49 46.2 49 26.7 0 43.9-10.3 43.9-41.4zm94.8 50.3c-9.2-31.7-20.7-62.9-34.6-93.7h-21.7c-13.9 31.1-25.1 62.3-34.5 93.7h20.5c1.7-6.6 3.5-13.2 5.5-19.9h38c2 6.7 4 13.3 5.7 19.9zm-45.8-72.3c5.2 12.2 9.8 24.3 13.9 36.3h-27.9c4.1-12 8.7-24.1 14-36.3zm57 72.3h19.4v-36.9h17.4l23 36.9h23.5l-24.5-38.1c10.8-2.4 18.3-9.2 18.3-27.5 0-27.6-17-28.1-36.4-28.1h-40.7zm37.9-77.7c16.4 0 19.6 2 19.6 11.4 0 11.8-5.2 13.3-20.7 13.3h-17.4v-24.7zm-430.5 178.3c1.2 19.4 9.5 31.5 40.1 31.5 14 0 36.6-2.5 36.6-28.9 0-18.7-11.2-23.9-24.6-27.5l-20.9-5.6c-5.5-1.4-9.5-3.4-9.5-10.2 0-7.4 5-9.3 14.8-9.3 16.7 0 17.1 5.3 18 13.1h19.3c-0.4-16.7-9-29.5-36.6-29.5-29 0-35.1 14.1-35.1 27.5 0 17.2 10.1 22.6 21.4 25.7l22.8 6.1c8.2 2.2 10.8 5.4 10.8 11.1 0 9.5-7.2 11-17 11-18.5 0-20-5.2-20.8-15zm174.3 29.4c-9.2-31.7-20.7-62.9-34.6-93.7h-21.7c-13.8 31.1-25.1 62.3-34.5 93.7h20.5c1.7-6.6 3.6-13.2 5.5-19.9h38.1c1.9 6.7 3.9 13.3 5.6 19.9zm-45.8-72.3c5.3 12.1 9.8 24.3 13.9 36.3h-27.9c4.1-12 8.7-24.2 14-36.3zm57.6 72.3h19.4v-62.2l36.8 62.2h19.4v-93.7h-19.4v61.8l-36.4-61.8h-19.8zm190-30.9c-1.5 12.4-7.7 16.5-20.6 16.5-18 0-23.3-10.9-23.3-30.3 0-25.1 7.1-34.7 23-34.7 16 0 18.7 6.4 20.9 14.8h19.4c-3.2-21.4-17.3-31.2-40.3-31.2-29.1 0-42.6 15.6-42.6 49.4 0 34.5 14.3 48.4 42.5 48.4 28.9 0 39.1-14.6 40.4-32.9zm115.1 30.9c-9.3-31.7-20.8-62.9-34.6-93.8h-21.7c-13.9 31.1-25.1 62.4-34.5 93.8h20.5c1.7-6.6 3.5-13.2 5.5-19.9h38c2 6.7 3.9 13.3 5.6 19.9zm-45.7-72.3c5.2 12.1 9.8 24.3 13.9 36.3h-27.9c4.1-12 8.6-24.2 14-36.3zm68.5 72.3h19.3v-36.5c13.2-19.1 23.7-38.2 32.4-57.3h-22.1c-4.8 13.2-11.2 26.3-19.6 39.5-8.5-13.2-15.4-26.3-20.4-39.5h-22.7c8.9 19 19.5 38.1 33.1 57zm63.5 0h71.2v-16h-51.8v-25h46v-16.1h-46v-20.5h49.7v-16.1h-69.1zm107.5 0h19.4v-77.2h28.1v-16.5h-75.7v16.5h28.2zm129.2 0c-9.2-31.7-20.7-62.9-34.6-93.7h-21.7c-13.8 31.1-25.1 62.3-34.5 93.7h20.5c1.7-6.6 3.6-13.2 5.5-19.9h38c2 6.7 4 13.3 5.7 19.9zm-45.8-72.3c5.3 12.2 9.8 24.3 13.9 36.3h-27.9c4.1-12 8.7-24.1 14-36.3zm56.6 72.3h19.4v-62.2l36.8 62.2h19.4v-93.7h-19.4v61.8l-36.4-61.8h-19.8zm90.3-47c0 40.3 21.4 49.1 45.3 49.1 22.7 0 45.1-8 45.1-49.1 0-41.6-23.1-48.8-45.5-48.8-21.2 0-44.9 6.4-44.9 48.8zm19.6 0.6c0-26 7.8-33 25.2-33 18.7 0 26 8 26 31.9 0 30.5-11.8 33.1-24.8 33.1-17.8 0-26.4-4.8-26.4-32z"/>
  <path id="&lt;Path&gt;" class="s0" d="m447.3 364.1l-4.84-4.81-129.93-129.31c-3.06-3.05-7.23-4.78-11.55-4.77-4.31 0.01-8.47 1.76-11.52 4.82l-130.51 131.13-3.62 3.64c-6.36 6.37-6.34 16.71 0.06 23.08 6.4 6.33 16.71 6.31 23.08-0.06l4.54-4.57 0.13 53.35c9.28 8.25 18.92 16.35 28.62 24.09q2.02 1.62 4.05 3.19l-0.27-113.34 85.54-85.95 85.95 85.54 0.26 110.26c11.13-8.72 22.1-17.83 32.54-27.11l-0.12-50.62 0.72 0.75 3.85 3.82c3.21 3.17 7.38 4.75 11.55 4.74 4.16-0.01 8.35-1.61 11.52-4.79 6.34-6.4 6.32-16.74-0.05-23.08z"/>
  <path id="&lt;Compound Path&gt;" class="s1" d="m558.96 246.52c-4.3-77.38-68.26-135.62-148.67-135.42-2.45 0-4.81 0.08-7.23 0.15-47.07 2.09-83.1 30.83-102.99 51.27-19.7-20.62-55.49-49.71-102.54-52.27-3.18-0.13-6.43-0.26-9.69-0.25-79.08 0.19-142.53 57.87-147.54 134.02-4.61 71.21 43.55 132.46 80.12 172.32 13.15 14.33 28.35 28.97 44.44 43.19 10.72 9.53 21.85 18.88 33.06 27.82q2.34 1.87 4.68 3.69 8.95 7.1 17.85 13.73 5.99 4.51 11.86 8.77c14.95 10.83 29.33 20.55 42.4 28.76 4.54 2.86 8.87 5.52 13.07 7.96 3.26 1.83 6.89 2.79 10.49 2.78 3.53-0.01 7.1-0.88 10.28-2.69 4.35-2.5 8.95-5.24 13.68-8.16 13.41-8.2 28.17-18.03 43.44-28.97 4.01-2.89 8.02-5.8 12.09-8.82 7.26-5.32 14.55-10.87 21.84-16.57q0.52-0.41 1.03-0.83c12.86-10.07 25.53-20.58 37.59-31.31 14.05-12.46 27.28-25.16 38.98-37.61 36.98-39.55 85.7-100.3 81.76-171.56zm-94.61 123.72c-5.9 7.01-11.84 13.53-17.43 19.53q-3.87 4.16-8.01 8.33-0.36 0.41-0.83 0.83c-11.74 11.9-24.48 23.56-37.57 34.74q-0.52 0.47-1.04 0.9c-23.97 20.37-48.88 38.95-70.62 53.85-8.77 6.01-17.03 11.43-24.57 16.15q-3.06 1.88-5.91 3.65c-1.83-1.14-3.78-2.34-5.75-3.62-7.35-4.69-15.46-10.14-24.03-16.18-20.42-14.17-43.61-31.77-66.12-51.06q-2.34-1.98-4.68-4.01c-11.41-9.9-22.62-20.19-33.06-30.69q-1.21-1.19-2.36-2.38c-3.92-3.94-7.7-7.94-11.38-11.95-4.55-4.94-9.3-10.26-14.06-15.92-28.46-33.47-58.37-78.33-55.26-125.68 3.14-47.22 40.61-95.07 106.27-95.23 2.42-0.01 4.95 0.06 7.37 0.12 51.2 2.75 87.15 54.24 87.42 54.65 3.86 5.7 10.24 9.08 17.02 9.13h0.24c6.72-0.01 13.04-3.35 16.87-8.9 0.38-0.52 36.81-51.55 88-53.82 1.83-0.08 3.66-0.08 5.53-0.08 66.84-0.16 104.54 48.27 107.15 96.24 0.07 1.87 0.18 3.7 0.18 5.53 0.11 43.58-26.72 84.49-53.37 115.87z"/>
  <path id="&lt;Path&gt;-2" class="s2" d="m359.96 383.55c-0.87-15.74-13.65-29.79-32.85-29.75q-0.81 0-1.63 0.04c-16.06 0.69-26.72 16.1-26.72 16.1 0 0-10.51-15.51-26.56-16.36q-1.11-0.06-2.19-0.06c-18.89 0.05-31.56 13.86-32.58 29.43-1.05 15.98 10.14 30.45 19.18 40.3 12.28 13.38 30.86 27.03 41.73 33.38 10.92-6.25 29.64-19.71 42.05-32.97 9.14-9.76 20.46-24.12 19.57-40.11z"/>
  <g id="Layer 1"/>
</svg>