<?xml version="1.0" encoding="utf-8"?>
<svg version="1.2" xmlns="http://www.w3.org/2000/svg" viewBox="-5.105 14.386 295.425 253.196" width="400" height="400">
  <title>7553046_24658 (1)</title>
  <defs>
    <linearGradient id="g1" x2="1" gradientUnits="userSpaceOnUse" gradientTransform="matrix(-0.633669, -265.645996, 226.827988, -0.541234, 36.918451, 268.602188)">
      <stop offset="0" stop-color="#ff1d13"/>
      <stop offset="1" stop-color="#ff8091"/>
    </linearGradient>
  </defs>
  <style>
		.s0 { fill: #000000 } 
		.s1 { fill: url(#g1) } 
		.s2 { fill: #ff1d13 } 
	</style>
  <path id="&lt;Path&gt;" class="s0" d="M 225.095 159.146 L 222.395 156.458 L 149.675 84.09 C 147.96 82.376 145.625 81.415 143.216 81.415 C 140.796 81.427 138.473 82.4 136.758 84.115 L 63.722 157.504 L 61.703 159.535 C 58.139 163.098 58.152 168.888 61.727 172.451 C 65.315 176.003 71.08 175.979 74.644 172.415 L 77.186 169.861 L 77.259 199.72 C 82.452 204.329 87.852 208.866 93.277 213.196 C 94.031 213.804 94.789 214.4 95.551 214.984 L 95.393 151.556 L 143.265 103.453 L 191.368 151.325 L 191.514 213.026 C 197.741 208.149 203.883 203.052 209.721 197.859 L 209.66 169.532 L 210.062 169.946 L 212.215 172.087 C 214.015 173.862 216.35 174.75 218.673 174.738 C 221.008 174.738 223.355 173.838 225.131 172.062 C 228.671 168.474 228.658 162.697 225.095 159.146 Z" style=""/>
  <path id="&lt;Compound Path&gt;" class="s1" d="M 287.586 93.346 C 285.178 50.035 249.383 17.452 204.382 17.549 C 203.008 17.561 201.694 17.598 200.344 17.646 C 174 18.814 153.834 34.893 142.706 46.326 C 131.674 34.796 111.642 18.51 85.323 17.087 C 83.535 17.014 81.71 16.941 79.898 16.941 C 35.639 17.05 0.124 49.33 -2.673 91.947 C -5.252 131.792 21.7 166.078 42.17 188.372 C 49.528 196.399 58.03 204.597 67.03 212.551 C 73.038 217.879 79.266 223.121 85.529 228.119 C 86.405 228.817 87.281 229.506 88.157 230.187 C 91.497 232.839 94.826 235.401 98.142 237.874 C 100.372 239.552 102.585 241.186 104.783 242.775 C 113.138 248.832 121.19 254.281 128.512 258.866 C 131.042 260.472 133.478 261.96 135.822 263.33 C 137.646 264.352 139.677 264.887 141.696 264.887 C 143.666 264.875 145.661 264.388 147.449 263.379 C 149.89 261.968 152.44 260.443 155.099 258.806 C 162.604 254.22 170.862 248.723 179.412 242.593 C 181.65 240.987 183.908 239.341 186.187 237.655 C 190.249 234.679 194.319 231.59 198.398 228.387 C 198.593 228.233 198.787 228.079 198.982 227.925 C 206.17 222.294 213.273 216.407 220.011 210.399 C 227.88 203.429 235.287 196.327 241.83 189.357 C 262.519 167.222 289.787 133.227 287.586 93.346 Z M 234.642 162.588 C 231.334 166.504 228.014 170.153 224.888 173.51 C 223.437 175.066 221.941 176.619 220.4 178.168 C 220.262 178.322 220.108 178.48 219.938 178.642 C 213.37 185.295 206.231 191.826 198.909 198.078 C 198.714 198.256 198.52 198.423 198.325 198.577 C 184.91 209.985 170.971 220.384 158.809 228.715 C 153.895 232.084 149.273 235.113 145.053 237.752 C 143.918 238.458 142.819 239.139 141.757 239.795 C 140.719 239.163 139.645 238.49 138.534 237.776 C 134.423 235.149 129.874 232.097 125.082 228.715 C 113.661 220.785 100.672 210.946 88.084 200.146 C 87.208 199.408 86.332 198.658 85.456 197.895 C 79.071 192.362 72.807 186.596 66.957 180.722 C 66.511 180.284 66.073 179.842 65.644 179.396 C 63.446 177.183 61.322 174.953 59.27 172.707 C 56.728 169.946 54.065 166.966 51.401 163.792 C 35.481 145.061 18.733 119.958 20.472 93.456 C 22.235 67.039 43.204 40.257 79.947 40.171 C 81.309 40.159 82.72 40.196 84.07 40.232 C 112.725 41.777 132.842 70.59 133 70.821 C 135.153 74.008 138.728 75.893 142.523 75.929 L 142.657 75.929 C 146.415 75.917 149.954 74.056 152.095 70.943 C 152.314 70.651 172.698 42.093 201.341 40.828 C 202.363 40.788 203.397 40.771 204.443 40.78 C 241.843 40.694 262.945 67.793 264.404 94.635 C 264.441 95.681 264.501 96.715 264.514 97.737 C 264.562 122.123 249.554 145.013 234.642 162.588 Z" style=""/>
  <path id="&lt;Path&gt;-2" class="s2" d="M 176.213 170.031 C 175.727 161.225 168.575 153.356 157.836 153.381 C 157.536 153.381 157.232 153.389 156.924 153.405 C 147.935 153.794 141.964 162.405 141.964 162.405 C 141.964 162.405 136.089 153.733 127.101 153.259 C 126.688 153.235 126.278 153.222 125.873 153.222 C 115.303 153.247 108.213 160.982 107.641 169.691 C 107.057 178.642 113.321 186.742 118.38 192.24 C 125.252 199.732 135.651 207.37 141.733 210.922 C 147.85 207.431 158.322 199.89 165.267 192.471 C 170.375 187.022 176.712 178.983 176.213 170.031 Z" style=""/>
</svg>