<?xml version="1.0" encoding="utf-8"?>
<svg version="1.2" xmlns="http://www.w3.org/2000/svg" viewBox="24.128 10.967 358.192 397.675" width="288" height="288">
  <title>7553046_24658 (1)</title>
  <defs>
    <linearGradient id="g1" x2="1" gradientUnits="userSpaceOnUse" gradientTransform="matrix(-0.768972, -322.013241, 274.958731, -0.65633, 75.424294, 320.257305)">
      <stop offset="0" stop-color="#ff1d13"/>
      <stop offset="1" stop-color="#ff8091"/>
    </linearGradient>
  </defs>
  <style>
		.s0 { fill: #000000 } 
		.s1 { fill: url(#g1) } 
		.s2 { fill: #ff1d13 } 
	</style>
  <path id="&lt;Path&gt;" class="s0" d="M 282.692 208.514 L 280.079 205.901 L 209.49 135.657 C 207.823 133.99 205.555 133.059 203.212 133.059 C 200.869 133.074 198.601 134.02 196.949 135.687 L 126.059 206.922 L 124.092 208.89 C 120.622 212.359 120.637 217.976 124.122 221.431 C 127.591 224.87 133.193 224.855 136.648 221.401 L 139.126 218.923 L 139.186 247.894 C 144.232 252.385 149.474 256.786 154.746 260.991 C 155.477 261.572 156.207 262.147 156.938 262.718 L 156.788 201.155 L 203.257 154.461 L 249.951 200.93 L 250.101 260.826 C 256.139 256.095 262.101 251.138 267.779 246.092 L 267.718 218.592 L 268.109 218.998 L 270.197 221.085 C 271.939 222.798 274.207 223.669 276.475 223.654 C 278.727 223.654 281.01 222.783 282.722 221.055 C 286.177 217.571 286.162 211.954 282.692 208.514 L 282.692 208.514 Z" style=""/>
  <path id="&lt;Compound Path&gt;" class="s1" d="M 379.28 107.812 C 376.366 55.321 332.976 15.806 278.427 15.941 C 276.76 15.941 275.168 16.001 273.516 16.046 C 241.585 17.458 217.15 36.953 203.662 50.815 C 190.281 36.832 166.01 17.097 134.094 15.37 C 131.932 15.28 129.724 15.19 127.516 15.19 C 73.868 15.325 30.824 54.45 27.43 106.115 C 24.306 154.416 56.972 195.974 81.783 223.008 C 90.705 232.725 101.008 242.668 111.926 252.31 C 119.196 258.768 126.75 265.121 134.35 271.189 C 135.411 272.03 136.472 272.861 137.534 273.682 C 141.579 276.896 145.614 280.005 149.639 283.009 C 152.343 285.041 155.026 287.019 157.689 288.941 C 167.827 296.301 177.589 302.894 186.451 308.466 C 189.525 310.408 192.478 312.206 195.312 313.858 C 197.52 315.104 199.998 315.75 202.431 315.75 C 204.834 315.75 207.252 315.149 209.4 313.918 C 212.363 312.216 215.457 310.373 218.681 308.391 C 227.783 302.819 237.801 296.15 248.149 288.731 C 250.862 286.788 253.601 284.796 256.364 282.753 C 261.29 279.139 266.227 275.394 271.173 271.519 C 271.403 271.329 271.638 271.139 271.879 270.948 C 280.59 264.115 289.196 256.981 297.366 249.712 C 306.903 241.256 315.884 232.635 323.814 224.194 C 348.896 197.37 381.953 156.143 379.28 107.812 L 379.28 107.812 Z M 315.103 191.738 C 311.093 196.499 307.068 200.915 303.268 204.985 C 301.516 206.867 299.709 208.75 297.847 210.632 C 297.676 210.822 297.486 211.013 297.276 211.203 C 289.316 219.268 280.665 227.183 271.789 234.768 C 271.558 234.978 271.323 235.183 271.083 235.383 C 254.817 249.201 237.921 261.802 223.172 271.91 C 217.225 275.98 211.623 279.659 206.516 282.874 C 205.134 283.715 203.798 284.536 202.506 285.337 C 201.244 284.566 199.943 283.75 198.601 282.889 C 193.615 279.705 188.103 276.01 182.305 271.91 C 168.443 262.297 152.718 250.357 137.444 237.276 C 136.382 236.375 135.321 235.469 134.26 234.557 C 126.525 227.829 118.925 220.86 111.836 213.726 C 111.296 213.195 110.765 212.66 110.244 212.119 C 107.581 209.436 105.008 206.732 102.525 204.009 C 99.431 200.66 96.202 197.055 92.988 193.21 C 73.673 170.501 53.382 140.073 55.5 107.947 C 57.618 75.912 83.045 43.456 127.591 43.351 C 129.228 43.351 130.94 43.381 132.593 43.426 C 167.317 45.303 191.707 80.222 191.888 80.508 C 194.516 84.367 198.841 86.665 203.437 86.695 L 203.602 86.695 C 208.153 86.68 212.449 84.428 215.047 80.658 C 215.302 80.312 240.008 45.679 274.732 44.147 C 275.974 44.107 277.231 44.087 278.502 44.087 C 323.829 43.981 349.407 76.843 351.179 109.374 C 351.224 110.651 351.299 111.897 351.314 113.144 C 351.374 142.701 333.171 170.441 315.103 191.738 L 315.103 191.738 Z" style=""/>
  <path id="&lt;Path&gt;-2" class="s2" d="M 235.247 219.088 C 234.782 210.527 227.843 202.897 217.405 202.927 C 217.114 202.927 216.819 202.932 216.519 202.942 C 207.793 203.318 202.01 211.683 202.01 211.683 C 202.01 211.683 196.303 203.258 187.577 202.807 C 187.177 202.777 186.781 202.762 186.391 202.762 C 176.133 202.792 169.239 210.302 168.683 218.757 C 168.113 227.438 174.195 235.293 179.106 240.655 C 185.775 247.924 195.868 255.329 201.77 258.783 C 207.718 255.389 217.87 248.075 224.629 240.865 C 229.585 235.579 235.743 227.769 235.247 219.088 L 235.247 219.088 Z" style=""/>
  <g id="Layer 1" style="" transform="matrix(1.501899, 0, 0, 1.501899, -13.662372, -7.623854)">
    <g id="&lt;Group&gt;">
      <g id="&lt;Group&gt;-2" style="opacity: .2;mix-blend-mode: multiply"/>
      <g id="&lt;Group&gt;-2"/>
      <g id="Folder 1"/>
      <path id="SAN CAYETANO" class="s0" aria-label="SAN&#10;CAYETANO" d="m113.2 237.3c0.3 4.4 2.2 7.2 9.2 7.2 3.2 0 8.4-0.6 8.4-6.6 0-4.3-2.6-5.5-5.6-6.3l-4.8-1.3c-1.3-0.4-2.2-0.8-2.2-2.4 0-1.7 1.1-2.1 3.4-2.1 3.8 0 3.9 1.2 4.1 3h4.5c-0.1-3.8-2.1-6.8-8.5-6.8-6.6 0-8 3.3-8 6.3 0 4 2.3 5.2 4.9 5.9l5.2 1.4c1.9 0.5 2.5 1.3 2.5 2.6 0 2.2-1.6 2.5-3.9 2.5-4.2 0-4.6-1.2-4.8-3.4zm40.1 6.7c-2.1-7.3-4.8-14.4-8-21.5h-4.9c-3.2 7.1-5.8 14.3-8 21.5h4.7c0.4-1.5 0.9-3 1.3-4.6h8.7c0.5 1.6 0.9 3.1 1.3 4.6zm-10.5-16.6c1.2 2.8 2.3 5.6 3.2 8.4h-6.4c0.9-2.8 2-5.6 3.2-8.4zm12.4 16.6h4.5v-14.3l8.4 14.3h4.5v-21.5h-4.5v14.2l-8.3-14.2h-4.6zm-76.2 22.9c-0.3 2.9-1.8 3.8-4.7 3.8-4.2 0-5.4-2.5-5.4-7 0-5.7 1.7-7.9 5.3-7.9 3.7 0 4.3 1.5 4.8 3.4h4.5c-0.8-4.9-4-7.2-9.3-7.2-6.7 0-9.8 3.6-9.8 11.3 0 8 3.3 11.2 9.8 11.2 6.6 0 9-3.4 9.3-7.6zm26.3 7.1c-2.2-7.3-4.8-14.4-8-21.5h-5c-3.1 7.1-5.7 14.3-7.9 21.5h4.7c0.4-1.5 0.8-3 1.3-4.6h8.7c0.5 1.6 0.9 3.1 1.3 4.6zm-10.5-16.6c1.2 2.8 2.3 5.6 3.2 8.3h-6.4c0.9-2.7 2-5.5 3.2-8.3zm15.1 16.6h4.5v-8.4c3-4.4 5.4-8.7 7.4-13.1h-5.1c-1.1 3-2.5 6-4.5 9-1.9-3-3.5-6-4.6-9h-5.3c2.1 4.3 4.5 8.7 7.6 13.1zm14.4 0h16.4v-3.7h-11.9v-5.8h10.5v-3.6h-10.5v-4.8h11.4v-3.6h-15.9zm24.7 0h4.5v-17.8h6.4v-3.8h-17.4v3.8h6.5zm30.3 0c-2.1-7.2-4.8-14.4-7.9-21.5h-5c-3.2 7.2-5.8 14.3-7.9 21.5h4.7c0.4-1.5 0.8-3 1.2-4.5h8.8c0.4 1.5 0.9 3 1.2 4.5zm-10.5-16.6c1.2 2.8 2.3 5.6 3.2 8.4h-6.4c1-2.8 2-5.6 3.2-8.4zm12.5 16.6h4.4v-14.3l8.5 14.3h4.4v-21.5h-4.4v14.2l-8.4-14.2h-4.5zm21.1-10.8c0 9.3 4.9 11.3 10.4 11.3 5.2 0 10.4-1.8 10.4-11.3 0-9.5-5.4-11.2-10.5-11.2-4.8 0-10.3 1.5-10.3 11.2zm4.5 0.2c0-6 1.8-7.6 5.8-7.6 4.3 0 6 1.8 6 7.3 0 7-2.7 7.6-5.7 7.6-4.1 0-6.1-1.1-6.1-7.3z"/>
      <path id="HOGAR" class="s0" aria-label="HOGAR" d="m91.2 89h4.4v-9.5h8.4v9.5h4.5v-21.5h-4.5v8.3h-8.4v-8.3h-4.4zm21.1-10.8c0 9.3 4.9 11.3 10.4 11.3 5.2 0 10.4-1.9 10.4-11.3 0-9.5-5.4-11.2-10.5-11.2-4.9 0-10.3 1.5-10.3 11.2zm4.5 0.1c0-5.9 1.8-7.5 5.8-7.5 4.3 0 6 1.8 6 7.3 0 7-2.8 7.6-5.8 7.6-4 0-6-1.1-6-7.4zm39.2-0.9h-9.5v3.7h5c0 3.2-1.2 4.6-5.6 4.6-3.8 0-6.1-1.2-6.1-7.4 0-6 2.1-7.5 6.2-7.5 3.7 0 4.9 1.3 5.2 3.4h4.4c-0.4-5.1-3.9-7.2-9.7-7.2-4.8 0-10.6 1.5-10.6 11.2 0 9.3 5.2 11.3 10.6 11.3 6.1 0 10.1-2.4 10.1-9.5zm21.2 11.5c-2.1-7.2-4.7-14.4-7.9-21.5h-5c-3.2 7.1-5.7 14.3-7.9 21.5h4.7c0.4-1.5 0.8-3 1.3-4.5h8.7c0.4 1.5 0.9 3 1.3 4.5zm-10.5-16.6c1.2 2.8 2.2 5.6 3.2 8.4h-6.4c0.9-2.8 1.9-5.6 3.2-8.4zm13.5 16.6h4.4v-8.4h4l5.3 8.4h5.4l-5.6-8.7c2.4-0.6 4.2-2.1 4.2-6.3 0-6.4-3.9-6.5-8.4-6.5h-9.3zm8.7-17.8c3.7 0 4.5 0.4 4.5 2.6 0 2.7-1.2 3.1-4.8 3.1h-4v-5.7z"/>
    </g>
  </g>
</svg>